<?xml version="1.0" encoding="utf-8"?>
<!-- Generator: Adobe Illustrator 16.0.0, SVG Export Plug-In . SVG Version: 6.00 Build 0)  -->
<!DOCTYPE svg PUBLIC "-//W3C//DTD SVG 1.1//EN" "http://www.w3.org/Graphics/SVG/1.1/DTD/svg11.dtd">
<svg version="1.1" id="Layer_1" xmlns="http://www.w3.org/2000/svg" xmlns:xlink="http://www.w3.org/1999/xlink" x="0px" y="0px"
	 width="584.761px" height="584.761px" viewBox="13.62 103.62 584.761 584.761"
	 enable-background="new 13.62 103.62 584.761 584.761" xml:space="preserve">
<g id="BACKGROUND">
	
		<radialGradient id="XMLID_2_" cx="250.0908" cy="542.9072" r="238.8726" gradientTransform="matrix(1.224 0 0 -1.224 -0.112 1060.519)" gradientUnits="userSpaceOnUse">
		<stop  offset="0" style="stop-color:#2593C2"/>
		<stop  offset="1" style="stop-color:#1E729E"/>
	</radialGradient>
	<rect id="XMLID_30_" x="13.62" y="103.62" fill="url(#XMLID_2_)" width="584.759" height="584.761"/>
</g>
<g id="OBJECTS">
	<g id="XMLID_31_">
		
			<rect id="XMLID_32_" x="13.62" y="103.62" fill="none" stroke="#36A5CC" stroke-width="0.5" stroke-miterlimit="10" width="584.759" height="584.761"/>
		
			<line id="XMLID_33_" fill="none" stroke="#36A5CC" stroke-width="0.5" stroke-miterlimit="10" x1="13.62" y1="661.8" x2="598.381" y2="661.8"/>
		
			<line id="XMLID_34_" fill="none" stroke="#36A5CC" stroke-width="0.5" stroke-miterlimit="10" x1="13.62" y1="635.221" x2="598.381" y2="635.221"/>
		
			<line id="XMLID_35_" fill="none" stroke="#36A5CC" stroke-width="0.5" stroke-miterlimit="10" x1="13.62" y1="608.641" x2="598.381" y2="608.641"/>
		
			<line id="XMLID_36_" fill="none" stroke="#36A5CC" stroke-width="0.5" stroke-miterlimit="10" x1="13.62" y1="582.061" x2="598.381" y2="582.061"/>
		
			<line id="XMLID_37_" fill="none" stroke="#36A5CC" stroke-width="0.5" stroke-miterlimit="10" x1="13.62" y1="555.479" x2="598.381" y2="555.479"/>
		
			<line id="XMLID_38_" fill="none" stroke="#36A5CC" stroke-width="0.5" stroke-miterlimit="10" x1="13.62" y1="528.9" x2="598.381" y2="528.9"/>
		
			<line id="XMLID_39_" fill="none" stroke="#36A5CC" stroke-width="0.5" stroke-miterlimit="10" x1="13.62" y1="502.32" x2="598.381" y2="502.32"/>
		
			<line id="XMLID_40_" fill="none" stroke="#36A5CC" stroke-width="0.5" stroke-miterlimit="10" x1="13.62" y1="475.74" x2="598.381" y2="475.74"/>
		
			<line id="XMLID_41_" fill="none" stroke="#36A5CC" stroke-width="0.5" stroke-miterlimit="10" x1="13.62" y1="449.161" x2="598.381" y2="449.161"/>
		
			<line id="XMLID_42_" fill="none" stroke="#36A5CC" stroke-width="0.5" stroke-miterlimit="10" x1="13.62" y1="422.58" x2="598.381" y2="422.58"/>
		
			<line id="XMLID_43_" fill="none" stroke="#36A5CC" stroke-width="0.5" stroke-miterlimit="10" x1="13.62" y1="396" x2="598.381" y2="396"/>
		
			<line id="XMLID_44_" fill="none" stroke="#36A5CC" stroke-width="0.5" stroke-miterlimit="10" x1="13.62" y1="369.421" x2="598.381" y2="369.421"/>
		
			<line id="XMLID_45_" fill="none" stroke="#36A5CC" stroke-width="0.5" stroke-miterlimit="10" x1="13.62" y1="342.84" x2="598.381" y2="342.84"/>
		
			<line id="XMLID_46_" fill="none" stroke="#36A5CC" stroke-width="0.5" stroke-miterlimit="10" x1="13.62" y1="316.26" x2="598.381" y2="316.26"/>
		
			<line id="XMLID_47_" fill="none" stroke="#36A5CC" stroke-width="0.5" stroke-miterlimit="10" x1="13.62" y1="289.68" x2="598.381" y2="289.68"/>
		
			<line id="XMLID_48_" fill="none" stroke="#36A5CC" stroke-width="0.5" stroke-miterlimit="10" x1="13.62" y1="263.101" x2="598.381" y2="263.101"/>
		
			<line id="XMLID_49_" fill="none" stroke="#36A5CC" stroke-width="0.5" stroke-miterlimit="10" x1="13.62" y1="236.52" x2="598.381" y2="236.52"/>
		
			<line id="XMLID_50_" fill="none" stroke="#36A5CC" stroke-width="0.5" stroke-miterlimit="10" x1="13.62" y1="209.94" x2="598.381" y2="209.94"/>
		
			<line id="XMLID_51_" fill="none" stroke="#36A5CC" stroke-width="0.5" stroke-miterlimit="10" x1="13.62" y1="183.36" x2="598.381" y2="183.36"/>
		
			<line id="XMLID_52_" fill="none" stroke="#36A5CC" stroke-width="0.5" stroke-miterlimit="10" x1="13.62" y1="156.78" x2="598.381" y2="156.78"/>
		
			<line id="XMLID_53_" fill="none" stroke="#36A5CC" stroke-width="0.5" stroke-miterlimit="10" x1="13.62" y1="130.2" x2="598.381" y2="130.2"/>
		
			<line id="XMLID_54_" fill="none" stroke="#36A5CC" stroke-width="0.5" stroke-miterlimit="10" x1="571.8" y1="103.62" x2="571.8" y2="688.381"/>
		
			<line id="XMLID_55_" fill="none" stroke="#36A5CC" stroke-width="0.5" stroke-miterlimit="10" x1="545.22" y1="103.62" x2="545.22" y2="688.381"/>
		
			<line id="XMLID_56_" fill="none" stroke="#36A5CC" stroke-width="0.5" stroke-miterlimit="10" x1="518.64" y1="103.62" x2="518.64" y2="688.381"/>
		
			<line id="XMLID_57_" fill="none" stroke="#36A5CC" stroke-width="0.5" stroke-miterlimit="10" x1="492.061" y1="103.62" x2="492.061" y2="688.381"/>
		
			<line id="XMLID_58_" fill="none" stroke="#36A5CC" stroke-width="0.5" stroke-miterlimit="10" x1="465.479" y1="103.62" x2="465.479" y2="688.381"/>
		
			<line id="XMLID_59_" fill="none" stroke="#36A5CC" stroke-width="0.5" stroke-miterlimit="10" x1="438.899" y1="103.62" x2="438.899" y2="688.381"/>
		
			<line id="XMLID_60_" fill="none" stroke="#36A5CC" stroke-width="0.5" stroke-miterlimit="10" x1="412.32" y1="103.62" x2="412.32" y2="688.381"/>
		
			<line id="XMLID_61_" fill="none" stroke="#36A5CC" stroke-width="0.5" stroke-miterlimit="10" x1="385.74" y1="103.62" x2="385.74" y2="688.381"/>
		
			<line id="XMLID_62_" fill="none" stroke="#36A5CC" stroke-width="0.5" stroke-miterlimit="10" x1="359.159" y1="103.62" x2="359.159" y2="688.381"/>
		
			<line id="XMLID_63_" fill="none" stroke="#36A5CC" stroke-width="0.5" stroke-miterlimit="10" x1="332.58" y1="103.62" x2="332.58" y2="688.381"/>
		
			<line id="XMLID_64_" fill="none" stroke="#36A5CC" stroke-width="0.5" stroke-miterlimit="10" x1="306" y1="103.62" x2="306" y2="688.381"/>
		
			<line id="XMLID_65_" fill="none" stroke="#36A5CC" stroke-width="0.5" stroke-miterlimit="10" x1="279.419" y1="103.62" x2="279.419" y2="688.381"/>
		
			<line id="XMLID_66_" fill="none" stroke="#36A5CC" stroke-width="0.5" stroke-miterlimit="10" x1="252.84" y1="103.62" x2="252.84" y2="688.381"/>
		
			<line id="XMLID_67_" fill="none" stroke="#36A5CC" stroke-width="0.5" stroke-miterlimit="10" x1="226.26" y1="103.62" x2="226.26" y2="688.381"/>
		
			<line id="XMLID_68_" fill="none" stroke="#36A5CC" stroke-width="0.5" stroke-miterlimit="10" x1="199.68" y1="103.62" x2="199.68" y2="688.381"/>
		
			<line id="XMLID_69_" fill="none" stroke="#36A5CC" stroke-width="0.5" stroke-miterlimit="10" x1="173.099" y1="103.62" x2="173.099" y2="688.381"/>
		
			<line id="XMLID_70_" fill="none" stroke="#36A5CC" stroke-width="0.5" stroke-miterlimit="10" x1="146.52" y1="103.62" x2="146.52" y2="688.381"/>
		
			<line id="XMLID_71_" fill="none" stroke="#36A5CC" stroke-width="0.5" stroke-miterlimit="10" x1="119.94" y1="103.62" x2="119.94" y2="688.381"/>
		
			<line id="XMLID_72_" fill="none" stroke="#36A5CC" stroke-width="0.5" stroke-miterlimit="10" x1="93.359" y1="103.62" x2="93.359" y2="688.381"/>
		
			<line id="XMLID_73_" fill="none" stroke="#36A5CC" stroke-width="0.5" stroke-miterlimit="10" x1="66.78" y1="103.62" x2="66.78" y2="688.381"/>
		
			<line id="XMLID_74_" fill="none" stroke="#36A5CC" stroke-width="0.5" stroke-miterlimit="10" x1="40.2" y1="103.62" x2="40.2" y2="688.381"/>
	</g>
	<g id="XMLID_90_">
		
			<line id="XMLID_78_" fill="none" stroke="#FFFFFF" stroke-width="3" stroke-linecap="round" stroke-linejoin="round" stroke-miterlimit="10" x1="385.74" y1="209.94" x2="385.74" y2="369.421"/>
		<g id="XMLID_154_">
			
				<rect id="XMLID_80_" x="341.321" y="263.101" fill="none" stroke="#FFFFFF" stroke-linecap="round" stroke-linejoin="round" stroke-miterlimit="10" width="6.71" height="106.32"/>
			
				<line id="XMLID_84_" fill="none" stroke="#FFFFFF" stroke-linecap="round" stroke-linejoin="round" stroke-miterlimit="10" x1="341.321" y1="270.837" x2="306.291" y2="270.837"/>
			
				<line id="XMLID_85_" fill="none" stroke="#FFFFFF" stroke-linecap="round" stroke-linejoin="round" stroke-miterlimit="10" x1="341.321" y1="294.594" x2="306.291" y2="294.594"/>
			
				<line id="XMLID_86_" fill="none" stroke="#FFFFFF" stroke-linecap="round" stroke-linejoin="round" stroke-miterlimit="10" x1="341.321" y1="318.35" x2="306.291" y2="318.35"/>
			
				<line id="XMLID_87_" fill="none" stroke="#FFFFFF" stroke-linecap="round" stroke-linejoin="round" stroke-miterlimit="10" x1="341.321" y1="342.106" x2="306.291" y2="342.106"/>
			
				<line id="XMLID_88_" fill="none" stroke="#FFFFFF" stroke-linecap="round" stroke-linejoin="round" stroke-miterlimit="10" x1="341.321" y1="365.861" x2="306.291" y2="365.861"/>
			
				<line id="XMLID_98_" fill="none" stroke="#FFFFFF" stroke-linecap="round" stroke-linejoin="round" stroke-miterlimit="10" x1="385.74" y1="270.837" x2="348.029" y2="270.837"/>
			
				<line id="XMLID_97_" fill="none" stroke="#FFFFFF" stroke-linecap="round" stroke-linejoin="round" stroke-miterlimit="10" x1="385.74" y1="294.594" x2="348.029" y2="294.594"/>
			
				<line id="XMLID_96_" fill="none" stroke="#FFFFFF" stroke-linecap="round" stroke-linejoin="round" stroke-miterlimit="10" x1="385.74" y1="318.35" x2="348.029" y2="318.35"/>
			
				<line id="XMLID_95_" fill="none" stroke="#FFFFFF" stroke-linecap="round" stroke-linejoin="round" stroke-miterlimit="10" x1="385.74" y1="342.106" x2="348.029" y2="342.106"/>
			
				<line id="XMLID_89_" fill="none" stroke="#FFFFFF" stroke-linecap="round" stroke-linejoin="round" stroke-miterlimit="10" x1="385.74" y1="365.861" x2="348.029" y2="365.861"/>
		</g>
		<g id="XMLID_157_">
			<path id="XMLID_113_" fill="none" stroke="#FFFFFF" stroke-linecap="round" stroke-linejoin="round" stroke-miterlimit="10" d="
				M116.138,417.913c-9.438,0-17.118-7.678-17.118-17.116s7.679-17.118,17.118-17.118h34.185c9.438,0,17.118,7.679,17.118,17.118
				s-7.68,17.116-17.118,17.116H116.138z"/>
			<path id="XMLID_81_" fill="none" stroke="#FFFFFF" stroke-linecap="round" stroke-linejoin="round" stroke-miterlimit="10" d="
				M150.322,415.465h-34.184c-8.102,0-14.67-6.567-14.67-14.669l0,0c0-8.102,6.568-14.67,14.67-14.67h34.185
				c8.102,0,14.669,6.568,14.669,14.67l0,0C164.993,408.897,158.423,415.465,150.322,415.465z"/>
		</g>
		<g id="XMLID_155_">
			<path id="XMLID_107_" fill="none" stroke="#FFFFFF" stroke-linecap="round" stroke-linejoin="round" stroke-miterlimit="10" d="
				M99.443,331.064h-6.083v-29.609h6.083c2.094,0,3.792,1.698,3.792,3.792v22.025C103.234,329.367,101.537,331.064,99.443,331.064z"
				/>
			<path id="XMLID_111_" fill="none" stroke="#FFFFFF" stroke-linecap="round" stroke-linejoin="round" stroke-miterlimit="10" d="
				M108.828,304.992c-1.976,0-3.856,0.28-5.594,0.771v20.993c1.737,0.492,3.618,0.771,5.594,0.771
				c8.543,0,15.469-5.045,15.469-11.268S117.372,304.992,108.828,304.992z"/>
			<path id="XMLID_108_" fill="none" stroke="#FFFFFF" stroke-linecap="round" stroke-linejoin="round" stroke-miterlimit="10" d="
				M107.917,308.227c-1.652,0-3.228,0.199-4.682,0.549v14.967c1.453,0.35,3.028,0.549,4.682,0.549
				c7.149,0,12.946-3.597,12.946-8.033C120.861,311.823,115.066,308.227,107.917,308.227z"/>
		</g>
		<g id="XMLID_156_">
			<path id="XMLID_112_" fill="none" stroke="#FFFFFF" stroke-linecap="round" stroke-linejoin="round" stroke-miterlimit="10" d="
				M97.342,343.722c-1.406,0-2.747,0.312-3.983,0.859v23.372c1.236,0.547,2.577,0.859,3.983,0.859
				c6.083,0,11.014-5.617,11.014-12.545C108.357,349.339,103.426,343.722,97.342,343.722z"/>
			<path id="XMLID_110_" fill="none" stroke="#FFFFFF" stroke-linecap="round" stroke-linejoin="round" stroke-miterlimit="10" d="
				M96.693,347.323c-1.177,0-2.298,0.223-3.333,0.612v16.664c1.034,0.391,2.156,0.612,3.333,0.612c5.091,0,9.218-4.005,9.218-8.944
				C105.91,351.328,101.784,347.323,96.693,347.323z"/>
			<path id="XMLID_109_" fill="none" stroke="#FFFFFF" stroke-linecap="round" stroke-linejoin="round" stroke-miterlimit="10" d="
				M99.244,357.609h-5.883v-3.229h5.883c0.891,0,1.615,0.722,1.615,1.614l0,0C100.859,356.886,100.135,357.609,99.244,357.609z"/>
		</g>
		
			<line id="XMLID_120_" fill="none" stroke="#FFFFFF" stroke-width="3" stroke-linecap="round" stroke-linejoin="round" stroke-miterlimit="10" x1="306.291" y1="209.94" x2="93.359" y2="209.94"/>
		<g id="XMLID_130_">
			<path id="XMLID_114_" fill="none" stroke="#FFFFFF" stroke-linecap="round" stroke-linejoin="round" stroke-miterlimit="10" d="
				M245.756,275.643H147.88c-4.228,0-7.653-3.427-7.653-7.653v-34.592c0-4.228,3.427-7.653,7.653-7.653h97.876
				c4.228,0,7.654,3.427,7.654,7.653v34.592C253.41,272.217,249.983,275.643,245.756,275.643z"/>
			<path id="XMLID_123_" fill="none" stroke="#FFFFFF" stroke-linecap="round" stroke-linejoin="round" stroke-miterlimit="10" d="
				M210.706,264.464h-38.513c-3.015,0-5.458-2.443-5.458-5.458v-16.627c0-3.015,2.443-5.458,5.458-5.458h38.513
				c3.015,0,5.458,2.443,5.458,5.458v16.627C216.163,262.021,213.719,264.464,210.706,264.464z"/>
			
				<polygon id="XMLID_124_" fill="none" stroke="#FFFFFF" stroke-linecap="round" stroke-linejoin="round" stroke-miterlimit="10" points="
				166.734,241.981 155.589,235.464 155.589,265.922 166.734,258.434 			"/>
			
				<polygon id="XMLID_126_" fill="none" stroke="#FFFFFF" stroke-linecap="round" stroke-linejoin="round" stroke-miterlimit="10" points="
				216.163,240.46 228.974,232.838 228.974,268.463 216.163,259.704 			"/>
			<path id="XMLID_128_" fill="none" stroke="#FFFFFF" stroke-linecap="round" stroke-linejoin="round" stroke-miterlimit="10" d="
				M228.974,235.464l13.82-9.721c0,7.581,4.753,13.726,10.616,13.726v22.448c-5.863,0-10.616,6.145-10.616,13.726l-13.82-9.721
				V235.464z"/>
			
				<polygon id="XMLID_131_" fill="none" stroke="#FFFFFF" stroke-linecap="round" stroke-linejoin="round" stroke-miterlimit="10" points="
				191.448,230.641 166.734,230.641 171.535,236.922 191.448,236.922 211.363,236.922 216.163,230.641 			"/>
			
				<polygon id="XMLID_129_" fill="none" stroke="#FFFFFF" stroke-linecap="round" stroke-linejoin="round" stroke-miterlimit="10" points="
				191.448,270.837 216.163,270.837 211.363,264.557 191.448,264.557 171.535,264.557 166.734,270.837 			"/>
			<path id="XMLID_127_" fill="none" stroke="#FFFFFF" stroke-linecap="round" stroke-linejoin="round" stroke-miterlimit="10" d="
				M214.753,225.743c0,0-6.827-5.214-3.555-6.869C214.468,217.22,219.019,225.743,214.753,225.743z"/>
			<path id="XMLID_132_" fill="none" stroke="#FFFFFF" stroke-linecap="round" stroke-linejoin="round" stroke-miterlimit="10" d="
				M214.753,275.643c0,0-6.827,5.214-3.555,6.869C214.468,284.167,219.019,275.643,214.753,275.643z"/>
		</g>
		<g id="XMLID_158_">
			<g id="XMLID_125_">
				
					<polygon id="XMLID_140_" fill="none" stroke="#FFFFFF" stroke-linecap="round" stroke-linejoin="round" stroke-miterlimit="10" points="
					159.811,449.161 159.811,441.467 125.536,441.467 125.536,449.161 125.536,502.32 125.536,510.015 133.23,510.015 
					159.811,510.015 159.811,502.32 133.23,502.32 133.23,449.161 				"/>
				
					<rect id="XMLID_135_" x="133.23" y="449.161" fill="none" stroke="#FFFFFF" stroke-linecap="round" stroke-linejoin="round" stroke-miterlimit="10" width="26.581" height="26.58"/>
				
					<rect id="XMLID_139_" x="133.23" y="475.74" fill="none" stroke="#FFFFFF" stroke-linecap="round" stroke-linejoin="round" stroke-miterlimit="10" width="26.581" height="26.58"/>
			</g>
			<g id="XMLID_143_">
				
					<polygon id="XMLID_146_" fill="none" stroke="#FFFFFF" stroke-linecap="round" stroke-linejoin="round" stroke-miterlimit="10" points="
					266.129,449.161 266.129,441.467 300.404,441.467 300.404,449.161 300.404,475.74 300.404,483.434 292.71,483.434 
					266.129,483.434 266.129,475.74 292.71,475.74 292.71,449.161 				"/>
				
					<rect id="XMLID_145_" x="266.13" y="449.16" fill="none" stroke="#FFFFFF" stroke-linecap="round" stroke-linejoin="round" stroke-miterlimit="10" width="26.58" height="26.58"/>
			</g>
			<g id="XMLID_137_">
				
					<polygon id="XMLID_142_" fill="none" stroke="#FFFFFF" stroke-linecap="round" stroke-linejoin="round" stroke-miterlimit="10" points="
					187.442,494.626 179.75,494.626 179.75,528.9 187.442,528.9 240.603,528.9 248.297,528.9 248.297,521.207 248.297,494.626 
					240.603,494.626 240.603,521.207 187.442,521.207 				"/>
				
					<rect id="XMLID_141_" x="187.442" y="494.627" fill="none" stroke="#FFFFFF" stroke-linecap="round" stroke-linejoin="round" stroke-miterlimit="10" width="26.58" height="26.58"/>
				
					<rect id="XMLID_138_" x="214.022" y="494.626" fill="none" stroke="#FFFFFF" stroke-linecap="round" stroke-linejoin="round" stroke-miterlimit="10" width="26.58" height="26.581"/>
			</g>
			<path id="XMLID_136_" fill="none" stroke="#FFFFFF" stroke-linecap="round" stroke-linejoin="round" stroke-miterlimit="10" d="
				M231.415,477.885h-34.784c-8.524,0-15.434-6.91-15.434-15.434l0,0c0-8.524,6.91-15.434,15.434-15.434h34.784
				c8.524,0,15.433,6.909,15.433,15.434l0,0C246.848,470.974,239.938,477.885,231.415,477.885z"/>
		</g>
		<g id="XMLID_148_">
			<path id="XMLID_147_" fill="none" stroke="#FFFFFF" stroke-linecap="round" stroke-linejoin="round" stroke-miterlimit="10" d="
				M458.063,443.587H414.09c-11.602,0-21.006-9.405-21.006-21.007l0,0c0-11.602,9.405-21.006,21.006-21.006h43.973
				c11.603,0,21.006,9.405,21.006,21.006l0,0C479.07,434.182,469.665,443.587,458.063,443.587z"/>
			
				<rect id="XMLID_144_" x="380.425" y="412.971" fill="none" stroke="#FFFFFF" stroke-linecap="round" stroke-linejoin="round" stroke-miterlimit="10" width="7.694" height="19.218"/>
			
				<rect id="XMLID_150_" x="410.056" y="388.307" fill="none" stroke="#FFFFFF" stroke-linecap="round" stroke-linejoin="round" stroke-miterlimit="10" width="19.218" height="7.694"/>
			
				<rect id="XMLID_151_" x="436.634" y="388.307" fill="none" stroke="#FFFFFF" stroke-linecap="round" stroke-linejoin="round" stroke-miterlimit="10" width="19.219" height="7.694"/>
			
				<rect id="XMLID_153_" x="410.056" y="449.16" fill="none" stroke="#FFFFFF" stroke-linecap="round" stroke-linejoin="round" stroke-miterlimit="10" width="19.218" height="7.693"/>
			
				<rect id="XMLID_152_" x="436.634" y="449.16" fill="none" stroke="#FFFFFF" stroke-linecap="round" stroke-linejoin="round" stroke-miterlimit="10" width="19.219" height="7.693"/>
			
				<rect id="XMLID_149_" x="484.034" y="412.971" fill="none" stroke="#FFFFFF" stroke-linecap="round" stroke-linejoin="round" stroke-miterlimit="10" width="7.694" height="19.219"/>
		</g>
		<g id="XMLID_181_">
			
				<polyline id="XMLID_83_" fill="none" stroke="#FFFFFF" stroke-width="3" stroke-linecap="round" stroke-linejoin="round" stroke-miterlimit="10" points="
				385.74,582.061 332.873,582.061 332.873,528.9 93.359,528.9 93.359,422.58 93.359,369.421 93.359,289.68 306.291,289.68 
				306.291,209.94 492.645,209.94 492.645,369.421 518.64,369.421 518.64,475.74 465.479,475.74 465.479,582.061 412.32,582.061 
				412.32,555.479 			"/>
			
				<polyline id="XMLID_75_" fill="none" stroke="#FFFFFF" stroke-width="3" stroke-linecap="round" stroke-linejoin="round" stroke-miterlimit="10" points="
				332.873,528.9 332.873,422.58 252.84,422.58 			"/>
			
				<polyline id="XMLID_77_" fill="none" stroke="#FFFFFF" stroke-width="3" stroke-linecap="round" stroke-linejoin="round" stroke-miterlimit="10" points="
				93.359,422.58 173.099,422.58 173.099,342.84 			"/>
			
				<polyline id="XMLID_76_" fill="none" stroke="#FFFFFF" stroke-width="3" stroke-linecap="round" stroke-linejoin="round" stroke-miterlimit="10" points="
				492.645,369.421 412.32,369.421 412.32,342.84 			"/>
			<g id="XMLID_79_">
				<g id="XMLID_371_">
					<path id="XMLID_374_" fill="none" stroke="#FFFFFF" stroke-linecap="round" stroke-linejoin="round" d="M385.74,369.421
						c0-1.242,0.085-2.465,0.249-3.664"/>
					
						<path id="XMLID_373_" fill="none" stroke="#FFFFFF" stroke-linecap="round" stroke-linejoin="round" stroke-dasharray="5.6204,2.8102" d="
						M386.68,362.387c2.621-9.577,10.466-16.996,20.279-19.005"/>
					<path id="XMLID_372_" fill="none" stroke="#FFFFFF" stroke-linecap="round" stroke-linejoin="round" d="M408.657,343.09
						c1.196-0.166,2.42-0.251,3.663-0.251"/>
				</g>
			</g>
			<g id="XMLID_99_">
				<g id="XMLID_366_">
					<path id="XMLID_369_" fill="none" stroke="#FFFFFF" stroke-linecap="round" stroke-linejoin="round" d="M385.74,582.061
						c0-1.242,0.085-2.466,0.249-3.664"/>
					
						<path id="XMLID_368_" fill="none" stroke="#FFFFFF" stroke-linecap="round" stroke-linejoin="round" stroke-dasharray="5.6204,2.8102" d="
						M386.68,575.027c2.621-9.577,10.466-16.995,20.279-19.005"/>
					<path id="XMLID_367_" fill="none" stroke="#FFFFFF" stroke-linecap="round" stroke-linejoin="round" d="M408.657,555.73
						c1.196-0.165,2.42-0.249,3.663-0.249"/>
				</g>
			</g>
			<g id="XMLID_106_">
				<g id="XMLID_361_">
					<path id="XMLID_364_" fill="none" stroke="#FFFFFF" stroke-linecap="round" stroke-linejoin="round" d="M173.099,342.84
						c-1.242,0-2.465-0.085-3.663-0.25"/>
					
						<path id="XMLID_363_" fill="none" stroke="#FFFFFF" stroke-linecap="round" stroke-linejoin="round" stroke-dasharray="5.6204,2.8102" d="
						M166.066,341.899c-9.577-2.621-16.996-10.464-19.005-20.279"/>
					<path id="XMLID_362_" fill="none" stroke="#FFFFFF" stroke-linecap="round" stroke-linejoin="round" d="M146.77,319.923
						c-0.166-1.197-0.25-2.42-0.25-3.663"/>
				</g>
			</g>
			
				<line id="XMLID_82_" fill="none" stroke="#FFFFFF" stroke-width="3" stroke-linecap="round" stroke-linejoin="round" stroke-miterlimit="10" x1="306.291" y1="289.68" x2="306" y2="369.421"/>
			
				<polyline id="XMLID_105_" fill="none" stroke="#FFFFFF" stroke-width="3" stroke-linecap="round" stroke-linejoin="round" stroke-miterlimit="10" points="
				173.099,289.68 173.099,316.26 146.52,316.26 			"/>
			
				<line id="XMLID_121_" fill="none" stroke="#FFFFFF" stroke-width="3" stroke-linecap="round" stroke-linejoin="round" stroke-miterlimit="10" x1="93.359" y1="289.68" x2="66.78" y2="275.643"/>
			
				<line id="XMLID_122_" fill="none" stroke="#FFFFFF" stroke-width="3" stroke-linecap="round" stroke-linejoin="round" stroke-miterlimit="10" x1="93.359" y1="209.94" x2="66.78" y2="224.149"/>
			
				<path id="XMLID_133_" fill="none" stroke="#FFFFFF" stroke-linecap="round" stroke-linejoin="round" stroke-miterlimit="10" stroke-dasharray="6,3" d="
				M66.336,275.409c5.125-9.685,15.304-16.283,27.023-16.283"/>
			
				<path id="XMLID_134_" fill="none" stroke="#FFFFFF" stroke-linecap="round" stroke-linejoin="round" stroke-miterlimit="10" stroke-dasharray="6,3" d="
				M66.558,224.696c5.125,9.685,15.304,16.283,27.023,16.283"/>
			<g id="XMLID_176_">
				<g id="XMLID_175_">
					<g id="XMLID_161_">
						
							<rect id="XMLID_159_" x="465.479" y="209.94" fill="none" stroke="#FFFFFF" stroke-linecap="round" stroke-linejoin="round" stroke-miterlimit="10" width="27.165" height="26.58"/>
						
							<path id="XMLID_160_" fill="none" stroke="#FFFFFF" stroke-linecap="round" stroke-linejoin="round" stroke-miterlimit="10" d="
							M468.953,217.831c0-2.395,1.941-4.335,4.336-4.335c2.394,0,4.335,1.941,4.335,4.335c0,2.394-1.941,4.335-4.335,4.335
							C470.895,222.166,468.953,220.225,468.953,217.831z"/>
						
							<path id="XMLID_162_" fill="none" stroke="#FFFFFF" stroke-linecap="round" stroke-linejoin="round" stroke-miterlimit="10" d="
							M480.501,217.831c0-2.395,1.941-4.335,4.335-4.335c2.395,0,4.336,1.941,4.336,4.335c0,2.394-1.941,4.335-4.336,4.335
							C482.442,222.166,480.501,220.225,480.501,217.831z"/>
						
							<path id="XMLID_164_" fill="none" stroke="#FFFFFF" stroke-linecap="round" stroke-linejoin="round" stroke-miterlimit="10" d="
							M468.953,228.629c0-2.394,1.941-4.335,4.336-4.335c2.394,0,4.335,1.941,4.335,4.335c0,2.395-1.941,4.335-4.335,4.335
							C470.895,232.964,468.953,231.023,468.953,228.629z"/>
						
							<path id="XMLID_163_" fill="none" stroke="#FFFFFF" stroke-linecap="round" stroke-linejoin="round" stroke-miterlimit="10" d="
							M480.501,228.629c0-2.394,1.941-4.335,4.335-4.335c2.395,0,4.336,1.941,4.336,4.335c0,2.395-1.941,4.335-4.336,4.335
							C482.442,232.964,480.501,231.023,480.501,228.629z"/>
					</g>
					
						<rect id="XMLID_165_" x="465.479" y="236.52" fill="none" stroke="#FFFFFF" stroke-linecap="round" stroke-linejoin="round" stroke-miterlimit="10" width="27.165" height="26.581"/>
					
						<rect id="XMLID_169_" x="465.479" y="289.68" fill="none" stroke="#FFFFFF" stroke-linecap="round" stroke-linejoin="round" stroke-miterlimit="10" width="27.165" height="26.581"/>
					
						<rect id="XMLID_167_" x="465.479" y="263.101" fill="none" stroke="#FFFFFF" stroke-linecap="round" stroke-linejoin="round" stroke-miterlimit="10" width="27.165" height="26.58"/>
					
						<rect id="XMLID_166_" x="468.953" y="266.5" fill="none" stroke="#FFFFFF" stroke-linecap="round" stroke-linejoin="round" stroke-miterlimit="10" width="23.691" height="19.782"/>
					
						<rect id="XMLID_173_" x="465.738" y="342.806" fill="none" stroke="#FFFFFF" stroke-linecap="round" stroke-linejoin="round" stroke-miterlimit="10" width="26.648" height="26.649"/>
					
						<rect id="XMLID_174_" x="479.063" y="316.26" fill="none" stroke="#FFFFFF" stroke-linecap="round" stroke-linejoin="round" stroke-miterlimit="10" width="13.324" height="26.58"/>
				</g>
				<g id="XMLID_170_">
					
						<rect id="XMLID_168_" x="385.706" y="209.94" fill="none" stroke="#FFFFFF" stroke-linecap="round" stroke-linejoin="round" stroke-miterlimit="10" width="26.648" height="26.649"/>
					
						<rect id="XMLID_172_" x="385.706" y="302.97" fill="none" stroke="#FFFFFF" stroke-linecap="round" stroke-linejoin="round" stroke-miterlimit="10" width="13.324" height="26.615"/>
					
						<rect id="XMLID_171_" x="385.706" y="236.52" fill="none" stroke="#FFFFFF" stroke-linecap="round" stroke-linejoin="round" stroke-miterlimit="10" width="36.478" height="66.484"/>
				</g>
			</g>
		</g>
		<g id="XMLID_180_">
			
				<rect id="XMLID_177_" x="332.873" y="475.74" fill="none" stroke="#FFFFFF" stroke-linecap="round" stroke-linejoin="round" stroke-miterlimit="10" width="26.286" height="79.739"/>
			
				<rect id="XMLID_178_" x="332.873" y="511.904" fill="none" stroke="#FFFFFF" stroke-linecap="round" stroke-linejoin="round" stroke-miterlimit="10" width="15.752" height="33.993"/>
			
				<circle id="XMLID_179_" fill="none" stroke="#FFFFFF" stroke-linecap="round" stroke-linejoin="round" stroke-miterlimit="10" cx="340.748" cy="489.03" r="7.565"/>
		</g>
		<g id="XMLID_350_">
			<g id="XMLID_349_">
				<g id="XMLID_317_">
					<g id="XMLID_266_">
						<g id="XMLID_356_">
							
								<line id="XMLID_359_" fill="none" stroke="#FFFFFF" stroke-linecap="round" stroke-linejoin="round" x1="66.78" y1="289.685" x2="66.78" y2="385.003"/>
							<g id="XMLID_357_">
								<rect id="XMLID_358_" x="62.802" y="289.073" fill="#FFFFFF" width="7.956" height="1.224"/>
							</g>
						</g>
					</g>
					<g id="XMLID_252_">
						<g id="XMLID_351_">
							
								<line id="XMLID_354_" fill="none" stroke="#FFFFFF" stroke-linecap="round" stroke-linejoin="round" x1="66.78" y1="528.289" x2="66.78" y2="432.97"/>
							<g id="XMLID_352_">
								<rect id="XMLID_353_" x="62.802" y="527.677" fill="#FFFFFF" width="7.956" height="1.224"/>
							</g>
						</g>
					</g>
					
						<text id="XMLID_223_" transform="matrix(0 -1 1 0 66.7803 423.333)" fill="#FFFFFF" font-family="'Quicksand-Regular'" font-size="12.24">2000</text>
				</g>
				<g id="XMLID_318_">
					<g id="XMLID_240_">
						<g id="XMLID_309_">
							
								<line id="XMLID_312_" fill="none" stroke="#FFFFFF" stroke-linecap="round" stroke-linejoin="round" x1="306.603" y1="183.36" x2="221.672" y2="183.36"/>
							<g id="XMLID_310_">
								<rect id="XMLID_311_" x="305.99" y="179.383" fill="#FFFFFF" width="1.224" height="7.956"/>
							</g>
						</g>
					</g>
					<g id="XMLID_222_">
						<g id="XMLID_303_">
							
								<line id="XMLID_307_" fill="none" stroke="#FFFFFF" stroke-linecap="round" stroke-linejoin="round" x1="93.971" y1="183.36" x2="178.901" y2="183.36"/>
							<g id="XMLID_304_">
								<rect id="XMLID_305_" x="93.359" y="179.383" fill="#FFFFFF" width="1.224" height="7.956"/>
							</g>
						</g>
					</g>
					
						<text id="XMLID_196_" transform="matrix(1 0 0 1 186.8877 183.3604)" fill="#FFFFFF" font-family="'Quicksand-Regular'" font-size="12.24">1200</text>
				</g>
				<g id="XMLID_347_">
					<g id="XMLID_228_">
						<g id="XMLID_297_">
							
								<line id="XMLID_301_" fill="none" stroke="#FFFFFF" stroke-linecap="round" stroke-linejoin="round" x1="492.032" y1="183.36" x2="418.104" y2="183.36"/>
							<g id="XMLID_299_">
								<rect id="XMLID_300_" x="491.42" y="179.383" fill="#FFFFFF" width="1.225" height="7.956"/>
							</g>
						</g>
					</g>
					<g id="XMLID_221_">
						<g id="XMLID_292_">
							
								<line id="XMLID_295_" fill="none" stroke="#FFFFFF" stroke-linecap="round" stroke-linejoin="round" x1="306.903" y1="183.36" x2="380.833" y2="183.36"/>
							<g id="XMLID_293_">
								<rect id="XMLID_294_" x="306.291" y="179.383" fill="#FFFFFF" width="1.225" height="7.956"/>
							</g>
						</g>
					</g>
					
						<text id="XMLID_197_" transform="matrix(1 0 0 1 386.0928 183.3604)" fill="#FFFFFF" font-family="'Quicksand-Regular'" font-size="12.24">1200</text>
				</g>
				
					<text id="XMLID_198_" transform="matrix(0 1 -1 0 518.6416 279.5645)" fill="#FFFFFF" font-family="'Quicksand-Regular'" font-size="12.24">750</text>
				<g id="XMLID_101_">
					<g id="XMLID_204_">
						<g id="XMLID_287_">
							
								<line id="XMLID_290_" fill="none" stroke="#FFFFFF" stroke-linecap="round" stroke-linejoin="round" x1="545.22" y1="475.128" x2="545.22" y2="435.66"/>
							<g id="XMLID_288_">
								<rect id="XMLID_289_" x="541.242" y="474.516" fill="#FFFFFF" width="7.956" height="1.225"/>
							</g>
						</g>
					</g>
					<g id="XMLID_100_">
						<g id="XMLID_282_">
							
								<line id="XMLID_285_" fill="none" stroke="#FFFFFF" stroke-linecap="round" stroke-linejoin="round" x1="545.22" y1="370.033" x2="545.22" y2="409.501"/>
							<g id="XMLID_283_">
								<rect id="XMLID_284_" x="541.242" y="369.421" fill="#FFFFFF" width="7.956" height="1.224"/>
							</g>
						</g>
					</g>
					
						<text id="XMLID_199_" transform="matrix(0 1 -1 0 545.2197 412.4648)" fill="#FFFFFF" font-family="'Quicksand-Regular'" font-size="12.24">750</text>
				</g>
				<g id="XMLID_316_">
					<g id="XMLID_264_">
						<g id="XMLID_277_">
							
								<line id="XMLID_280_" fill="none" stroke="#FFFFFF" stroke-linecap="round" stroke-linejoin="round" x1="93.971" y1="555.479" x2="189.291" y2="555.479"/>
							<g id="XMLID_278_">
								<rect id="XMLID_279_" x="93.359" y="551.502" fill="#FFFFFF" width="1.224" height="7.956"/>
							</g>
						</g>
					</g>
					<g id="XMLID_224_">
						<g id="XMLID_272_">
							
								<line id="XMLID_275_" fill="none" stroke="#FFFFFF" stroke-linecap="round" stroke-linejoin="round" x1="332.575" y1="555.479" x2="237.256" y2="555.479"/>
							<g id="XMLID_273_">
								<rect id="XMLID_274_" x="331.964" y="551.502" fill="#FFFFFF" width="1.224" height="7.956"/>
							</g>
						</g>
					</g>
					
						<text id="XMLID_227_" transform="matrix(1 0 0 1 201.1396 555.4795)" fill="#FFFFFF" font-family="'Quicksand-Regular'" font-size="12.24">1500</text>
				</g>
				<g id="XMLID_315_">
					<g id="XMLID_92_">
						<g id="XMLID_267_">
							
								<line id="XMLID_270_" fill="none" stroke="#FFFFFF" stroke-linecap="round" stroke-linejoin="round" x1="333.192" y1="608.641" x2="379.397" y2="608.641"/>
							<g id="XMLID_268_">
								<rect id="XMLID_269_" x="332.58" y="604.663" fill="#FFFFFF" width="1.225" height="7.956"/>
							</g>
						</g>
					</g>
					<g id="XMLID_93_">
						<g id="XMLID_260_">
							
								<line id="XMLID_263_" fill="none" stroke="#FFFFFF" stroke-linecap="round" stroke-linejoin="round" x1="464.868" y1="608.641" x2="418.418" y2="608.641"/>
							<g id="XMLID_261_">
								<rect id="XMLID_262_" x="464.256" y="604.663" fill="#FFFFFF" width="1.224" height="7.956"/>
							</g>
						</g>
					</g>
					
						<text id="XMLID_229_" transform="matrix(1 0 0 1 385.8418 608.6396)" fill="#FFFFFF" font-family="'Quicksand-Regular'" font-size="12.24">1000</text>
				</g>
				<g id="XMLID_314_">
					<g id="XMLID_192_">
						<g id="XMLID_209_">
							
								<line id="XMLID_212_" fill="none" stroke="#FFFFFF" stroke-linecap="round" stroke-linejoin="round" x1="492.645" y1="581.448" x2="492.645" y2="541.98"/>
							<g id="XMLID_210_">
								<rect id="XMLID_211_" x="488.666" y="580.836" fill="#FFFFFF" width="7.956" height="1.225"/>
							</g>
						</g>
					</g>
					<g id="XMLID_94_">
						<g id="XMLID_203_">
							
								<line id="XMLID_207_" fill="none" stroke="#FFFFFF" stroke-linecap="round" stroke-linejoin="round" x1="492.645" y1="476.352" x2="492.645" y2="515.819"/>
							<g id="XMLID_205_">
								<rect id="XMLID_206_" x="488.666" y="475.74" fill="#FFFFFF" width="7.956" height="1.224"/>
							</g>
						</g>
					</g>
					
						<text id="XMLID_195_" transform="matrix(0 1 -1 0 492.6455 518.7852)" fill="#FFFFFF" font-family="'Quicksand-Regular'" font-size="12.24">750</text>
				</g>
			</g>
			<g id="XMLID_348_">
				<g id="XMLID_102_">
					<g id="XMLID_253_">
						
							<line id="XMLID_258_" fill="none" stroke="#FFFFFF" stroke-linecap="round" stroke-linejoin="round" x1="97.053" y1="156.78" x2="514.946" y2="156.78"/>
						<g id="XMLID_256_">
							<path id="XMLID_257_" fill="#FFFFFF" d="M93.359,156.78c1.738,0.645,3.895,1.745,5.231,2.911l-1.053-2.911l1.053-2.91
								C97.254,155.036,95.098,156.136,93.359,156.78z"/>
						</g>
						<g id="XMLID_254_">
							<path id="XMLID_255_" fill="#FFFFFF" d="M518.64,156.78c-1.738,0.645-3.896,1.745-5.231,2.911l1.053-2.911l-1.053-2.91
								C514.746,155.036,516.902,156.136,518.64,156.78z"/>
						</g>
					</g>
				</g>
				<g id="XMLID_103_">
					<g id="XMLID_245_">
						
							<line id="XMLID_250_" fill="none" stroke="#FFFFFF" stroke-linecap="round" stroke-linejoin="round" x1="40.2" y1="578.401" x2="40.2" y2="213.634"/>
						<g id="XMLID_248_">
							<path id="XMLID_249_" fill="#FFFFFF" d="M40.2,582.095c0.645-1.738,1.746-3.896,2.911-5.231l-2.911,1.053l-2.909-1.053
								C38.456,578.201,39.556,580.356,40.2,582.095z"/>
						</g>
						<g id="XMLID_246_">
							<path id="XMLID_247_" fill="#FFFFFF" d="M40.2,209.94c0.645,1.738,1.746,3.895,2.911,5.231l-2.911-1.052l-2.909,1.052
								C38.456,213.834,39.556,211.678,40.2,209.94z"/>
						</g>
					</g>
				</g>
				<g id="XMLID_104_">
					<g id="XMLID_237_">
						
							<line id="XMLID_243_" fill="none" stroke="#FFFFFF" stroke-linecap="round" stroke-linejoin="round" x1="571.8" y1="578.401" x2="571.8" y2="213.634"/>
						<g id="XMLID_241_">
							<path id="XMLID_242_" fill="#FFFFFF" d="M571.8,582.095c0.646-1.738,1.746-3.896,2.911-5.231l-2.911,1.053l-2.909-1.053
								C570.056,578.201,571.155,580.356,571.8,582.095z"/>
						</g>
						<g id="XMLID_238_">
							<path id="XMLID_239_" fill="#FFFFFF" d="M571.8,209.94c0.646,1.738,1.746,3.895,2.911,5.231l-2.911-1.052l-2.909,1.052
								C570.056,213.834,571.155,211.678,571.8,209.94z"/>
						</g>
					</g>
				</g>
				<g id="XMLID_298_">
					<g id="XMLID_230_">
						
							<line id="XMLID_235_" fill="none" stroke="#FFFFFF" stroke-linecap="round" stroke-linejoin="round" x1="335.98" y1="635.221" x2="461.786" y2="635.221"/>
						<g id="XMLID_233_">
							<path id="XMLID_234_" fill="#FFFFFF" d="M332.287,635.221c1.737,0.646,3.895,1.746,5.23,2.911l-1.052-2.911l1.052-2.91
								C336.182,633.476,334.024,634.576,332.287,635.221z"/>
						</g>
						<g id="XMLID_231_">
							<path id="XMLID_232_" fill="#FFFFFF" d="M465.479,635.221c-1.737,0.646-3.895,1.746-5.231,2.911l1.053-2.911l-1.053-2.91
								C461.585,633.476,463.742,634.576,465.479,635.221z"/>
						</g>
					</g>
				</g>
				<g id="XMLID_306_">
					<g id="XMLID_214_">
						
							<line id="XMLID_219_" fill="none" stroke="#FFFFFF" stroke-linecap="round" stroke-linejoin="round" x1="97.053" y1="582.061" x2="329.179" y2="582.061"/>
						<g id="XMLID_217_">
							<path id="XMLID_218_" fill="#FFFFFF" d="M93.359,582.061c1.738,0.645,3.895,1.745,5.231,2.91l-1.053-2.91l1.053-2.91
								C97.254,580.316,95.098,581.416,93.359,582.061z"/>
						</g>
						<g id="XMLID_215_">
							<path id="XMLID_216_" fill="#FFFFFF" d="M332.873,582.061c-1.738,0.645-3.895,1.745-5.231,2.91l1.053-2.91l-1.053-2.91
								C328.979,580.316,331.135,581.416,332.873,582.061z"/>
						</g>
					</g>
				</g>
			</g>
			<g>
				<g id="XMLID_226_">
					<g id="XMLID_193_">
						
							<line id="XMLID_201_" fill="none" stroke="#FFFFFF" stroke-linecap="round" stroke-linejoin="round" x1="518.64" y1="368.843" x2="518.64" y2="305.649"/>
						<g id="XMLID_194_">
							<rect id="XMLID_200_" x="514.661" y="368.231" fill="#FFFFFF" width="7.956" height="1.224"/>
						</g>
					</g>
				</g>
				<g id="XMLID_220_">
					<g id="XMLID_187_">
						
							<line id="XMLID_190_" fill="none" stroke="#FFFFFF" stroke-linecap="round" stroke-linejoin="round" x1="518.64" y1="210.552" x2="518.64" y2="273.746"/>
						<g id="XMLID_188_">
							<rect id="XMLID_189_" x="514.661" y="209.94" fill="#FFFFFF" width="7.956" height="1.224"/>
						</g>
					</g>
				</g>
			</g>
		</g>
	</g>
</g>
</svg>
